<?xml version="1.0" encoding="UTF-8"?>
<svg width="150px" height="38px" viewBox="0 0 150 38" version="1.1" xmlns="http://www.w3.org/2000/svg" xmlns:xlink="http://www.w3.org/1999/xlink">
    <title>画板</title>
    <g id="画板" stroke="none" stroke-width="1" fill="none" fill-rule="evenodd">
        <g id="返回按钮" transform="translate(1.000000, 1.000000)">
            <path d="M4,0 L144,0 C146.209139,-4.05812251e-16 148,1.790861 148,4 L148,32 C148,34.209139 146.209139,36 144,36 L4,36 C1.790861,36 2.705415e-16,34.209139 0,32 L0,4 C-2.705415e-16,1.790861 1.790861,4.05812251e-16 4,0 Z" id="矩形" stroke="#333333"></path>
            <text id="返回控制台" font-family="SourceHanSansCN-Regular, Source Han Sans CN" font-size="20" font-weight="normal" fill="#333333">
                <tspan x="40" y="26">返回控制台</tspan>
            </text>
            <g id="编组" transform="translate(8.000000, 6.000000)" fill="#333333" fill-rule="nonzero">
                <g id="2.通用/1.icon/2.设计/down">
                    <path d="M20.625,2.625 L3.375,2.625 C2.96015625,2.625 2.625,2.96015625 2.625,3.375 L2.625,20.625 C2.625,21.0398437 2.96015625,21.375 3.375,21.375 L20.625,21.375 C21.0398437,21.375 21.375,21.0398437 21.375,20.625 L21.375,3.375 C21.375,2.96015625 21.0398437,2.625 20.625,2.625 Z M19.6875,19.6875 L4.3125,19.6875 L4.3125,4.3125 L19.6875,4.3125 L19.6875,19.6875 Z M7.96875,16.0078125 L7.96875,17.8125 C7.96875,17.915625 8.053125,18 8.15625,18 L9.28125,18 C9.384375,18 9.46875,17.915625 9.46875,17.8125 L9.46875,16.0078125 C9.23203125,16.0851562 8.98125,16.125 8.71875,16.125 C8.45625,16.125 8.20546875,16.0828125 7.96875,16.0078125 Z M9.46875,11.3671875 L9.46875,6.1875 C9.46875,6.084375 9.384375,6 9.28125,6 L8.15625,6 C8.053125,6 7.96875,6.084375 7.96875,6.1875 L7.96875,11.3671875 C8.20546875,11.2898437 8.45625,11.25 8.71875,11.25 C8.98125,11.25 9.23203125,11.2921875 9.46875,11.3671875 Z M7.96875,16.0078125 C8.20546875,16.0851562 8.45625,16.125 8.71875,16.125 C8.98125,16.125 9.23203125,16.0828125 9.46875,16.0078125 C10.4484375,15.6914062 11.15625,14.7726562 11.15625,13.6875 C11.15625,12.6023438 10.4484375,11.6835938 9.46875,11.3671875 C9.23203125,11.2898437 8.98125,11.25 8.71875,11.25 C8.45625,11.25 8.20546875,11.2921875 7.96875,11.3671875 C6.9890625,11.6835938 6.28125,12.6023438 6.28125,13.6875 C6.28125,14.7726562 6.9890625,15.6914062 7.96875,16.0078125 Z M7.97109375,13.2960937 C7.978125,13.2820312 7.9875,13.2679687 7.99453125,13.2539062 L7.99453125,13.2515625 L8.02265625,13.209375 C8.025,13.2046875 8.02734375,13.2023438 8.0296875,13.1976563 C8.03671875,13.1859375 8.04609375,13.1765625 8.053125,13.1648438 C8.05546875,13.1625 8.0578125,13.1578125 8.06015625,13.1554688 C8.071875,13.1414063 8.08125,13.1296875 8.09296875,13.1179688 L8.1,13.1109375 L8.128125,13.0828125 L8.1375,13.0734375 C8.14921875,13.0617188 8.1609375,13.0523438 8.175,13.040625 C8.1890625,13.0289063 8.20078125,13.0195313 8.21484375,13.0101563 C8.21953125,13.0078125 8.221875,13.0054688 8.2265625,13.003125 C8.23828125,12.9960938 8.24765625,12.9867188 8.259375,12.9796875 C8.26171875,12.9773438 8.26640625,12.975 8.26875,12.9726563 C8.2828125,12.9632813 8.296875,12.95625 8.31328125,12.946875 C8.315625,12.9445313 8.3203125,12.9445313 8.32265625,12.9421875 C8.334375,12.9351563 8.34609375,12.9304688 8.36015625,12.9234375 L8.37421875,12.9164063 C8.390625,12.909375 8.4046875,12.9023438 8.42109375,12.8976563 C8.4375,12.890625 8.45390625,12.8859375 8.4703125,12.88125 C8.475,12.8789063 8.4796875,12.8789063 8.484375,12.8765625 C8.4984375,12.871875 8.51015625,12.8695313 8.52421875,12.8671875 C8.52890625,12.8671875 8.53125,12.8648438 8.5359375,12.8648438 C8.55234375,12.8601563 8.57109375,12.8578125 8.5875,12.8554688 C8.5921875,12.8554688 8.59453125,12.8554688 8.59921875,12.853125 C8.61328125,12.8507813 8.62734375,12.8507813 8.64140625,12.8484375 L8.65546875,12.8484375 C8.67421875,12.8484375 8.690625,12.8460938 8.709375,12.8460938 C8.728125,12.8460938 8.74453125,12.8460938 8.76328125,12.8484375 L8.77734375,12.8484375 C8.79140625,12.8484375 8.80546875,12.8507813 8.81953125,12.853125 C8.82421875,12.853125 8.8265625,12.853125 8.83125,12.8554688 C8.84765625,12.8578125 8.86640625,12.8601563 8.8828125,12.8648438 C8.8875,12.8648438 8.88984375,12.8671875 8.89453125,12.8671875 C8.90859375,12.8695313 8.92265625,12.8742188 8.934375,12.8765625 C8.9390625,12.8789063 8.94375,12.8789063 8.9484375,12.88125 C8.96484375,12.8859375 8.98125,12.890625 8.99765625,12.8976563 C9.0140625,12.9023438 9.028125,12.909375 9.04453125,12.9164063 L9.05859375,12.9234375 C9.0703125,12.928125 9.084375,12.9351563 9.09609375,12.9421875 C9.0984375,12.9445313 9.103125,12.9445313 9.10546875,12.946875 C9.11953125,12.9539063 9.1359375,12.9632813 9.15,12.9726563 C9.15234375,12.975 9.15703125,12.9773438 9.159375,12.9796875 C9.17109375,12.9867188 9.1828125,12.99375 9.1921875,13.003125 C9.196875,13.0054688 9.19921875,13.0078125 9.20390625,13.0101563 C9.21796875,13.0195313 9.23203125,13.03125 9.24375,13.040625 C9.25546875,13.05 9.26953125,13.0617188 9.28125,13.0734375 L9.290625,13.0828125 L9.31875,13.1109375 L9.32578125,13.1179688 C9.3375,13.1296875 9.34921875,13.14375 9.35859375,13.1554688 C9.3609375,13.1578125 9.36328125,13.1625 9.365625,13.1648438 C9.375,13.1742188 9.38203125,13.1859375 9.3890625,13.1976563 C9.39140625,13.2023438 9.39375,13.2046875 9.39609375,13.209375 L9.42421875,13.2515625 C9.42421875,13.2515625 9.42421875,13.2539062 9.4265625,13.2539062 C9.4359375,13.2679688 9.44296875,13.2820313 9.45,13.2960937 C9.5109375,13.4132812 9.54609375,13.546875 9.54609375,13.6875 C9.54609375,13.828125 9.5109375,13.9617188 9.45,14.0789063 C9.44296875,14.0929688 9.43359375,14.1070313 9.4265625,14.1210938 C9.4265625,14.1210938 9.4265625,14.1234375 9.42421875,14.1234375 L9.39609375,14.165625 C9.39375,14.1703125 9.39140625,14.1726562 9.3890625,14.1773438 C9.38203125,14.1890625 9.37265625,14.1984375 9.365625,14.2101562 C9.36328125,14.2125 9.3609375,14.2171875 9.35859375,14.2195312 C9.346875,14.2335937 9.3375,14.2453125 9.32578125,14.2570312 L9.31875,14.2640625 L9.290625,14.2921875 L9.28125,14.3015625 C9.26953125,14.3132812 9.2578125,14.3226562 9.24375,14.334375 C9.2296875,14.3460938 9.21796875,14.3554687 9.20390625,14.3648437 C9.19921875,14.3671875 9.196875,14.3695312 9.1921875,14.371875 C9.18046875,14.3789062 9.17109375,14.3882812 9.159375,14.3953125 C9.15703125,14.3976562 9.15234375,14.4 9.15,14.4023437 C9.1359375,14.4117187 9.121875,14.41875 9.10546875,14.428125 C9.103125,14.4304687 9.0984375,14.4304687 9.09609375,14.4328125 C9.084375,14.4398437 9.07265625,14.4445312 9.05859375,14.4515625 L9.04453125,14.4585937 C9.028125,14.465625 9.0140625,14.4726562 8.99765625,14.4773437 C8.98125,14.484375 8.96484375,14.4890625 8.9484375,14.49375 C8.94375,14.4960937 8.9390625,14.4960937 8.934375,14.4984375 C8.9203125,14.503125 8.90859375,14.5054687 8.89453125,14.5078125 C8.88984375,14.5078125 8.8875,14.5101562 8.8828125,14.5101562 C8.86640625,14.5148437 8.84765625,14.5171875 8.83125,14.5195312 C8.8265625,14.5195312 8.82421875,14.5195312 8.81953125,14.521875 C8.80546875,14.5242187 8.79140625,14.5242187 8.77734375,14.5265625 L8.76328125,14.5265625 C8.74453125,14.5265625 8.728125,14.5289062 8.709375,14.5289062 C8.690625,14.5289062 8.67421875,14.5289062 8.65546875,14.5265625 L8.64140625,14.5265625 C8.62734375,14.5265625 8.61328125,14.5242187 8.59921875,14.521875 C8.59453125,14.521875 8.5921875,14.521875 8.5875,14.5195312 C8.57109375,14.5171875 8.55234375,14.5148437 8.5359375,14.5101562 C8.53125,14.5101562 8.52890625,14.5078125 8.52421875,14.5078125 C8.51015625,14.5054687 8.49609375,14.5007812 8.484375,14.4984375 C8.4796875,14.4960937 8.475,14.4960937 8.4703125,14.49375 C8.45390625,14.4890625 8.4375,14.484375 8.42109375,14.4773437 C8.4046875,14.4726562 8.390625,14.465625 8.37421875,14.4585937 L8.36015625,14.4515625 C8.3484375,14.446875 8.334375,14.4398437 8.32265625,14.4328125 C8.3203125,14.4304687 8.315625,14.4304687 8.31328125,14.428125 C8.29921875,14.4210937 8.2828125,14.4117187 8.26875,14.4023437 C8.26640625,14.4 8.26171875,14.3976562 8.259375,14.3953125 C8.24765625,14.3882812 8.2359375,14.38125 8.2265625,14.371875 C8.221875,14.3695312 8.21953125,14.3671875 8.21484375,14.3648437 C8.20078125,14.3554687 8.18671875,14.34375 8.175,14.334375 C8.16328125,14.325 8.14921875,14.3132812 8.1375,14.3015625 L8.128125,14.2921875 L8.1,14.2640625 L8.09296875,14.2570312 C8.08125,14.2453125 8.06953125,14.23125 8.06015625,14.2195312 C8.0578125,14.2171875 8.05546875,14.2125 8.053125,14.2101562 C8.04375,14.2007813 8.03671875,14.1890625 8.0296875,14.1773438 C8.02734375,14.1726562 8.025,14.1703125 8.02265625,14.165625 L7.99453125,14.1234375 L7.99453125,14.1210938 C7.98515625,14.1070313 7.978125,14.0929687 7.97109375,14.0789063 C7.91015625,13.9617188 7.875,13.828125 7.875,13.6875 C7.875,13.546875 7.91015625,13.4132812 7.97109375,13.2960937 Z M14.53125,12.6328125 L14.53125,17.8125 C14.53125,17.915625 14.615625,18 14.71875,18 L15.84375,18 C15.946875,18 16.03125,17.915625 16.03125,17.8125 L16.03125,12.6328125 C15.7945312,12.7101562 15.54375,12.75 15.28125,12.75 C15.01875,12.75 14.7679688,12.7078125 14.53125,12.6328125 Z M16.03125,7.9921875 L16.03125,6.1875 C16.03125,6.084375 15.946875,6 15.84375,6 L14.71875,6 C14.615625,6 14.53125,6.084375 14.53125,6.1875 L14.53125,7.9921875 C14.7679688,7.91484375 15.01875,7.875 15.28125,7.875 C15.54375,7.875 15.7945312,7.9171875 16.03125,7.9921875 Z M14.53125,12.6328125 C14.7679688,12.7101562 15.01875,12.75 15.28125,12.75 C15.54375,12.75 15.7945312,12.7078125 16.03125,12.6328125 C17.0109375,12.3164062 17.71875,11.3976563 17.71875,10.3125 C17.71875,9.22734375 17.0109375,8.30859375 16.03125,7.9921875 C15.7945312,7.91484375 15.54375,7.875 15.28125,7.875 C15.01875,7.875 14.7679688,7.9171875 14.53125,7.9921875 C13.5515625,8.30859375 12.84375,9.22734375 12.84375,10.3125 C12.84375,11.3976563 13.5515625,12.3164062 14.53125,12.6328125 Z M14.5335938,9.92109375 C14.540625,9.90703125 14.55,9.89296875 14.5570313,9.87890625 L14.5570313,9.8765625 L14.5851563,9.834375 C14.5875,9.8296875 14.5898438,9.82734375 14.5921875,9.82265625 C14.5992188,9.8109375 14.6085938,9.8015625 14.615625,9.78984375 C14.6179688,9.7875 14.6203125,9.7828125 14.6226563,9.78046875 C14.634375,9.76640625 14.64375,9.7546875 14.6554687,9.74296875 L14.6625,9.7359375 L14.690625,9.7078125 L14.7,9.6984375 C14.7117187,9.68671875 14.7234375,9.67734375 14.7375,9.665625 C14.7515625,9.65390625 14.7632813,9.64453125 14.7773438,9.63515625 C14.7820313,9.6328125 14.784375,9.63046875 14.7890625,9.628125 C14.8007812,9.62109375 14.8101563,9.61171875 14.821875,9.6046875 C14.8242188,9.60234375 14.8289062,9.6 14.83125,9.59765625 C14.8453125,9.58828125 14.859375,9.58125 14.8757812,9.571875 C14.878125,9.56953125 14.8828125,9.56953125 14.8851562,9.5671875 C14.896875,9.56015625 14.9085937,9.55546875 14.9226562,9.5484375 L14.9367187,9.54140625 C14.953125,9.534375 14.9671875,9.52734375 14.9835937,9.52265625 C15,9.515625 15.0164062,9.5109375 15.0328125,9.50625 C15.0375,9.50390625 15.0421875,9.50390625 15.046875,9.5015625 C15.0609375,9.496875 15.0726563,9.49453125 15.0867188,9.4921875 C15.0914063,9.4921875 15.09375,9.48984375 15.0984375,9.48984375 C15.1148438,9.48515625 15.1335938,9.4828125 15.15,9.48046875 C15.1546875,9.48046875 15.1570313,9.48046875 15.1617188,9.478125 C15.1757813,9.47578125 15.1898438,9.47578125 15.2039063,9.4734375 L15.2179688,9.4734375 C15.2367188,9.4734375 15.253125,9.47109375 15.271875,9.47109375 C15.290625,9.47109375 15.3070313,9.47109375 15.3257813,9.4734375 L15.3398438,9.4734375 C15.3539063,9.4734375 15.3679688,9.47578125 15.3820312,9.478125 C15.3867188,9.478125 15.3890625,9.478125 15.39375,9.48046875 C15.4101562,9.4828125 15.4289062,9.48515625 15.4453125,9.48984375 C15.45,9.48984375 15.4523437,9.4921875 15.4570312,9.4921875 C15.4710938,9.49453125 15.4851563,9.49921875 15.496875,9.5015625 C15.5015625,9.50390625 15.50625,9.50390625 15.5109375,9.50625 C15.5273438,9.5109375 15.54375,9.515625 15.5601563,9.52265625 C15.5765625,9.52734375 15.590625,9.534375 15.6070313,9.54140625 L15.6210938,9.5484375 C15.6328125,9.553125 15.646875,9.56015625 15.6585938,9.5671875 C15.6609375,9.56953125 15.665625,9.56953125 15.6679688,9.571875 C15.6820313,9.57890625 15.6984375,9.58828125 15.7125,9.59765625 C15.7148438,9.6 15.7195313,9.60234375 15.721875,9.6046875 C15.7335938,9.61171875 15.7453125,9.61875 15.7546875,9.628125 C15.759375,9.63046875 15.7617188,9.6328125 15.7664063,9.63515625 C15.7804688,9.64453125 15.7945313,9.65625 15.80625,9.665625 C15.8179688,9.675 15.8320313,9.68671875 15.84375,9.6984375 L15.853125,9.7078125 L15.88125,9.7359375 L15.8882813,9.74296875 C15.9,9.7546875 15.9117188,9.76875 15.9210938,9.78046875 C15.9234375,9.7828125 15.9257813,9.7875 15.928125,9.78984375 C15.9375,9.79921875 15.9445313,9.8109375 15.9515625,9.82265625 C15.9539063,9.82734375 15.95625,9.8296875 15.9585938,9.834375 L15.9867188,9.8765625 L15.9867188,9.87890625 C15.9960938,9.89296875 16.003125,9.90703125 16.0101563,9.92109375 C16.0710938,10.0382812 16.10625,10.171875 16.10625,10.3125 C16.10625,10.453125 16.0710938,10.5867187 16.0101563,10.7039062 C16.003125,10.7179687 15.99375,10.7320312 15.9867188,10.7460937 L15.9867188,10.7484375 L15.9585938,10.790625 C15.95625,10.7953125 15.9539062,10.7976562 15.9515625,10.8023437 C15.9445313,10.8140625 15.9351563,10.8234375 15.928125,10.8351562 C15.9257812,10.8375 15.9234375,10.8421875 15.9210938,10.8445312 C15.909375,10.8585937 15.9,10.8703125 15.8882813,10.8820312 L15.88125,10.8890625 L15.853125,10.9171875 L15.84375,10.9265625 C15.8320313,10.9382812 15.8203125,10.9476562 15.80625,10.959375 C15.7921875,10.9710937 15.7804688,10.9804687 15.7664063,10.9898437 C15.7617188,10.9921875 15.759375,10.9945312 15.7546875,10.996875 C15.7429688,11.0039062 15.7335938,11.0132812 15.721875,11.0203125 C15.7195313,11.0226562 15.7148438,11.025 15.7125,11.0273437 C15.6984375,11.0367187 15.684375,11.04375 15.6679688,11.053125 C15.665625,11.0554687 15.6609375,11.0554687 15.6585938,11.0578125 C15.646875,11.0648437 15.6351563,11.0695312 15.6210938,11.0765625 L15.6070313,11.0835937 C15.590625,11.090625 15.5765625,11.0976562 15.5601563,11.1023437 C15.54375,11.109375 15.5273438,11.1140625 15.5109375,11.11875 C15.50625,11.1210937 15.5015625,11.1210937 15.496875,11.1234375 C15.4828125,11.128125 15.4710938,11.1304687 15.4570312,11.1328125 C15.4523437,11.1328125 15.45,11.1351562 15.4453125,11.1351562 C15.4289062,11.1398437 15.4101562,11.1421875 15.39375,11.1445312 C15.3890625,11.1445312 15.3867188,11.1445312 15.3820312,11.146875 C15.3679687,11.1492187 15.3539062,11.1492187 15.3398438,11.1515625 L15.3257813,11.1515625 C15.3070313,11.1515625 15.290625,11.1539062 15.271875,11.1539062 C15.253125,11.1539062 15.2367188,11.1539062 15.2179688,11.1515625 L15.2039063,11.1515625 C15.1898438,11.1515625 15.1757812,11.1492187 15.1617188,11.146875 C15.1570313,11.146875 15.1546875,11.146875 15.15,11.1445312 C15.1335938,11.1421875 15.1148438,11.1398437 15.0984375,11.1351562 C15.09375,11.1351562 15.0914063,11.1328125 15.0867188,11.1328125 C15.0726563,11.1304687 15.0585938,11.1257812 15.046875,11.1234375 C15.0421875,11.1210937 15.0375,11.1210937 15.0328125,11.11875 C15.0164062,11.1140625 15,11.109375 14.9835937,11.1023437 C14.9671875,11.0976562 14.953125,11.090625 14.9367187,11.0835937 L14.9226562,11.0765625 C14.9109375,11.071875 14.896875,11.0648437 14.8851562,11.0578125 C14.8828125,11.0554687 14.878125,11.0554687 14.8757812,11.053125 C14.8617187,11.0460937 14.8453125,11.0367187 14.83125,11.0273437 C14.8289062,11.025 14.8242188,11.0226562 14.821875,11.0203125 C14.8101563,11.0132812 14.7984375,11.00625 14.7890625,10.996875 C14.784375,10.9945312 14.7820313,10.9921875 14.7773438,10.9898437 C14.7632813,10.9804687 14.7492187,10.96875 14.7375,10.959375 C14.7257812,10.95 14.7117187,10.9382812 14.7,10.9265625 L14.690625,10.9171875 L14.6625,10.8890625 L14.6554687,10.8820312 C14.64375,10.8703125 14.6320312,10.85625 14.6226563,10.8445312 C14.6203125,10.8421875 14.6179687,10.8375 14.615625,10.8351562 C14.60625,10.8257812 14.5992188,10.8140625 14.5921875,10.8023437 C14.5898438,10.7976562 14.5875,10.7953125 14.5851563,10.790625 L14.5570313,10.7484375 L14.5570313,10.7460937 C14.5476563,10.7320312 14.540625,10.7179687 14.5335938,10.7039062 C14.4726562,10.5867187 14.4375,10.453125 14.4375,10.3125 C14.4375,10.171875 14.4726562,10.0382812 14.5335938,9.92109375 Z" id="形状"></path>
                </g>
            </g>
        </g>
    </g>
</svg>