<?xml version="1.0" encoding="UTF-8"?>
<svg width="20px" height="20px" viewBox="0 0 20 20" version="1.1" xmlns="http://www.w3.org/2000/svg" xmlns:xlink="http://www.w3.org/1999/xlink">
    <title>-mockplus-</title>
    <g id="页面-1" stroke="none" stroke-width="1" fill="none" fill-rule="evenodd">
        <g id="动环监测-扬尘污染监测-查看" transform="translate(-1125.000000, -618.000000)">
            <g id="编组" transform="translate(-17082.000000, 80.000000)">
                <g id="表格" transform="translate(17411.000000, 160.000000)">
                    <g id="-mockplus-" transform="translate(1.000000, 357.000000)">
                        <g id="-mockplus-" transform="translate(795.000000, 21.000000)">
                            <g id="icon/设计/注意" transform="translate(1.000000, 1.000000)">
                                <path d="M9,18 C13.9705714,18 18,13.9705714 18,9 C18,4.02944143 13.9705714,0 9,0 C4.02944143,0 0,4.02944143 0,9 C0,13.9705714 4.02944143,18 9,18 Z" id="椭圆形" fill="#FF8D23" fill-rule="nonzero"></path>
                                <path d="M9.56521642,12 C9.80534298,12 10,12.194657 10,12.4347836 L10,13.5652164 C10,13.805343 9.80534298,14 9.56521642,14 L8.43478246,14 C8.19465926,14 8,13.805343 8,13.5652164 L8,12.4347836 C8,12.194657 8.19465926,12 8.43478246,12 L9.56521642,12 Z M9.56521642,4 C9.80534298,4 10,4.214554 10,4.47921849 L10,9.52078028 C10,9.78543614 9.80534298,10 9.56521642,10 L8.43478246,10 C8.19465926,10 8,9.78543614 8,9.52078028 L8,4.47921849 C8,4.214554 8.19465926,4 8.43478246,4 L9.56521642,4 Z" id="形状结合" fill="#FFFFFF"></path>
                            </g>
                        </g>
                    </g>
                </g>
            </g>
        </g>
    </g>
</svg>